<?xml version="1.0" encoding="UTF-8"?>
<svg width="1200pt" height="1200pt" version="1.1" viewBox="0 0 1200 1200" xmlns="http://www.w3.org/2000/svg">
 <g>
  <rect width="1200" height="1200"/>
  <path d="m600 259.93c-128.47 0-233.52 104.29-234.27 233.52v212.36c0 129.23 105.04 234.27 234.27 234.27s234.27-105.04 234.27-234.27l0.003907-211.6c0-129.23-105.04-234.27-234.27-234.27zm-162.48 569.81c-25.695-34.762-41.566-77.84-41.566-123.94v-129.23c26.449 48.367 76.328 108.82 167.77 150.39 1.5117 0.75391 2.2656 0.75391 3.0234 1.5117-71.793 40.809-111.84 81.617-129.23 101.27zm119.4-390.7c11.336 11.336 26.449 17.383 43.074 17.383s31.738-6.0469 43.074-17.383c11.336-11.336 17.383-26.449 17.383-43.074 0-3.7773 0-8.3125-1.5117-12.09 21.16 14.359 36.273 35.52 43.074 61.211 1.5117 6.8008 7.5586 11.336 14.359 11.336l12.094-0.003907c8.3125 0 15.113 6.8008 15.113 15.113s-6.8008 15.113-15.113 15.113h-11.336c-6.8008 0-12.848 4.5352-14.359 11.336-12.09 46.859-54.41 79.355-102.78 79.355s-89.93-32.496-102.02-79.352c-1.5117-6.8008-7.5586-11.336-14.359-11.336h-12.09c-8.3125 0-15.113-6.8008-15.113-15.113s6.8008-15.113 15.113-15.113h11.336c6.8008 0 12.848-4.5352 14.359-11.336 12.844-46.855 54.41-79.352 102.77-79.352 8.3125 0 15.871 3.0234 21.16 9.0703 6.0469 6.0469 9.0703 13.602 9.0703 21.16 0 7.5586-3.0234 15.871-9.0703 21.16-11.336 11.336-31.738 11.336-43.074 0-6.0469-6.0469-15.113-6.0469-21.16 0-5.2891 6.043-5.2891 15.867 0 21.914zm-18.895 153.41c18.895 9.8242 40.055 15.113 61.969 15.113s43.074-5.2891 61.969-15.113c26.449 0.75391 49.879 16.625 60.457 40.809-24.938 24.184-56.68 47.609-99 66.504-8.3125 3.7773-15.871 7.5586-24.184 11.336-7.5586-3.7773-15.871-7.5586-24.184-11.336-41.562-18.895-74.059-42.32-99-66.504 12.098-24.184 35.523-40.055 61.973-40.809zm266.01 113.36c0 112.6-91.441 204.04-204.04 204.04-55.168 0-105.04-21.914-142.07-57.434 15.113-18.137 69.527-75.57 178.35-125.45 90.688-41.562 140.56-102.02 167.77-150.39zm-59.699-95.977c-11.336-18.895-28.719-33.25-49.121-40.809 14.359-14.355 25.691-32.492 33.25-52.141 24.938 0 45.344-20.402 45.344-45.344 0-24.938-20.402-45.344-45.344-45.344-18.895-53.656-70.281-90.688-128.47-90.688s-108.82 37.031-128.47 90.688c-24.938 0-45.344 20.402-45.344 45.344 0 24.938 20.402 45.344 45.344 45.344 6.8008 19.648 18.895 37.785 33.25 52.145-20.402 7.5586-37.785 21.914-49.121 40.809-46.094-55.168-58.188-108.82-59.699-117.14 0.75781-111.85 92.199-202.53 204.04-202.53 111.85 0 203.29 90.688 204.04 202.53-1.5117 8.3125-13.602 61.969-59.699 117.13z" fill="#fff"/>
 </g>
</svg>
